<mxfile host="65bd71144e">
    <diagram id="_GKSRZMQsMLNfxFD6B1H" name="Page-1">
        <mxGraphModel dx="1112" dy="572" grid="1" gridSize="10" guides="1" tooltips="1" connect="1" arrows="1" fold="1" page="1" pageScale="1" pageWidth="827" pageHeight="1169" math="0" shadow="0">
            <root>
                <mxCell id="0"/>
                <mxCell id="1" parent="0"/>
                <mxCell id="42" value="" style="rounded=0;whiteSpace=wrap;html=1;fillColor=#999999;" vertex="1" parent="1">
                    <mxGeometry width="825" height="590" as="geometry"/>
                </mxCell>
                <mxCell id="41" value="" style="group;fillColor=none;" parent="1" vertex="1" connectable="0">
                    <mxGeometry x="50" y="30" width="260" height="412.72" as="geometry"/>
                </mxCell>
                <mxCell id="3" value="OrderItem" style="text;html=1;align=center;verticalAlign=middle;resizable=0;points=[];autosize=1;strokeColor=none;fillColor=none;" parent="41" vertex="1">
                    <mxGeometry x="30" width="80" height="30" as="geometry"/>
                </mxCell>
                <mxCell id="2" value="" style="rounded=0;whiteSpace=wrap;html=1;fillColor=none;" parent="41" vertex="1">
                    <mxGeometry x="40" y="46.356363636363646" width="210" height="366.3636363636364" as="geometry"/>
                </mxCell>
                <mxCell id="29" value="" style="ellipse;whiteSpace=wrap;html=1;aspect=fixed;labelBackgroundColor=none;fontSize=12;fontColor=#ffffff;fillColor=none;strokeColor=#6F0000;" parent="41" vertex="1">
                    <mxGeometry x="246.36" y="32.72000000000002" width="13.64" height="13.64" as="geometry"/>
                </mxCell>
                <mxCell id="6" value="order reference" style="text;html=1;strokeColor=none;fillColor=none;align=center;verticalAlign=middle;whiteSpace=wrap;rounded=0;fontColor=#CC6600;" parent="41" vertex="1">
                    <mxGeometry y="18.18" width="170" height="30" as="geometry"/>
                </mxCell>
                <mxCell id="36" value="" style="group;fillColor=none;" parent="41" vertex="1" connectable="0">
                    <mxGeometry x="40" y="176.35636363636365" width="200" height="224.54363636363638" as="geometry"/>
                </mxCell>
                <mxCell id="14" value="" style="rounded=0;whiteSpace=wrap;html=1;labelBackgroundColor=none;fontSize=12;fontColor=#CC6600;fillColor=none;" parent="36" vertex="1">
                    <mxGeometry x="10" y="26.363636363636374" width="190" height="198.18" as="geometry"/>
                </mxCell>
                <mxCell id="15" value="ProductList" style="text;html=1;align=center;verticalAlign=middle;resizable=0;points=[];autosize=1;strokeColor=none;fillColor=none;" parent="36" vertex="1">
                    <mxGeometry width="80" height="30" as="geometry"/>
                </mxCell>
                <mxCell id="33" value="&lt;font color=&quot;#3399ff&quot;&gt;add product&lt;/font&gt;" style="text;html=1;align=center;verticalAlign=middle;resizable=0;points=[];autosize=1;strokeColor=none;fillColor=none;fontSize=12;fontColor=#FFFFFF;" parent="36" vertex="1">
                    <mxGeometry x="60" y="0.003636363636360329" width="90" height="30" as="geometry"/>
                </mxCell>
                <mxCell id="35" value="" style="group;fillColor=none;" parent="36" vertex="1" connectable="0">
                    <mxGeometry x="10" y="33.64363636363634" width="190" height="48.639999999999986" as="geometry"/>
                </mxCell>
                <mxCell id="16" value="" style="rounded=0;whiteSpace=wrap;html=1;labelBackgroundColor=none;fontSize=12;fontColor=#CC6600;fillColor=none;" parent="35" vertex="1">
                    <mxGeometry x="10" y="8.639999999999986" width="170" height="40" as="geometry"/>
                </mxCell>
                <mxCell id="22" value="SKU" style="text;html=1;strokeColor=none;fillColor=none;align=center;verticalAlign=middle;whiteSpace=wrap;rounded=0;labelBackgroundColor=none;fontSize=12;fontColor=#CC6600;" parent="35" vertex="1">
                    <mxGeometry y="13.639999999999986" width="60" height="30" as="geometry"/>
                </mxCell>
                <mxCell id="23" value="&lt;meta charset=&quot;utf-8&quot;&gt;Title" style="text;whiteSpace=wrap;html=1;fontSize=12;fontColor=#CC6600;fillColor=none;" parent="35" vertex="1">
                    <mxGeometry x="65" y="15.45999999999998" width="30" height="20" as="geometry"/>
                </mxCell>
                <mxCell id="24" value="&lt;meta charset=&quot;utf-8&quot;&gt;quantity" style="text;whiteSpace=wrap;html=1;fontSize=12;fontColor=#CC6600;fillColor=none;" parent="35" vertex="1">
                    <mxGeometry x="100" y="15.45999999999998" width="60" height="30" as="geometry"/>
                </mxCell>
                <mxCell id="27" value="" style="ellipse;whiteSpace=wrap;html=1;aspect=fixed;labelBackgroundColor=none;fontSize=12;fontColor=#ffffff;fillColor=none;strokeColor=#6F0000;" parent="35" vertex="1">
                    <mxGeometry x="176.36" width="13.64" height="13.64" as="geometry"/>
                </mxCell>
                <mxCell id="38" value="" style="group;fillColor=none;" parent="41" vertex="1" connectable="0">
                    <mxGeometry x="25" y="46.356363636363646" width="210" height="130.00000000000003" as="geometry"/>
                </mxCell>
                <mxCell id="5" value="" style="rounded=0;whiteSpace=wrap;html=1;fillColor=none;" parent="38" vertex="1">
                    <mxGeometry x="20" y="23.636363636363637" width="190" height="106.36363636363637" as="geometry"/>
                </mxCell>
                <mxCell id="7" value="Adress" style="text;html=1;align=center;verticalAlign=middle;resizable=0;points=[];autosize=1;strokeColor=none;fillColor=none;" parent="38" vertex="1">
                    <mxGeometry x="20" width="60" height="30" as="geometry"/>
                </mxCell>
                <mxCell id="9" value="&lt;font style=&quot;font-size: 12px;&quot;&gt;&lt;span style=&quot;font-family: sans-serif; text-align: start;&quot;&gt;Name&amp;nbsp;&lt;/span&gt;&lt;br style=&quot;font-family: sans-serif; text-align: start;&quot;&gt;&lt;span style=&quot;font-family: sans-serif; text-align: start;&quot;&gt;Company&lt;/span&gt;&lt;br style=&quot;font-family: sans-serif; text-align: start;&quot;&gt;&lt;span style=&quot;font-family: sans-serif; text-align: start;&quot;&gt;Street&lt;br&gt;&lt;/span&gt;&lt;span style=&quot;font-family: sans-serif; text-align: start;&quot;&gt;City&lt;/span&gt;&lt;br style=&quot;font-family: sans-serif; text-align: start;&quot;&gt;&lt;span style=&quot;font-family: sans-serif; text-align: start;&quot;&gt;Postal code&lt;/span&gt;&lt;span style=&quot;font-family: sans-serif; text-align: start;&quot;&gt;&lt;/span&gt;&lt;br style=&quot;font-family: sans-serif; text-align: start;&quot;&gt;&lt;span style=&quot;font-family: sans-serif; text-align: start;&quot;&gt;Country&lt;/span&gt;&lt;span style=&quot;color: rgb(32, 33, 34); font-family: sans-serif; text-align: start;&quot;&gt;&amp;nbsp;&lt;/span&gt;&lt;/font&gt;" style="text;html=1;strokeColor=none;fillColor=none;align=center;verticalAlign=middle;whiteSpace=wrap;rounded=0;fontColor=#CC6600;" parent="38" vertex="1">
                    <mxGeometry y="59.09090909090909" width="200" height="35.45454545454545" as="geometry"/>
                </mxCell>
                <mxCell id="17" value="" style="rounded=1;whiteSpace=wrap;html=1;labelBackgroundColor=none;fontSize=12;fontColor=#CC6600;fillColor=none;" parent="1" vertex="1">
                    <mxGeometry x="490" y="136.36" width="160" height="200" as="geometry"/>
                </mxCell>
                <mxCell id="18" value="&lt;span style=&quot;color: rgb(204, 102, 0); font-size: 19px;&quot;&gt;Key&lt;/span&gt;" style="text;html=1;strokeColor=none;fillColor=none;align=center;verticalAlign=middle;whiteSpace=wrap;rounded=0;labelBackgroundColor=none;fontSize=12;fontColor=#FFFFFF;" parent="1" vertex="1">
                    <mxGeometry x="535" y="156.36" width="60" height="30" as="geometry"/>
                </mxCell>
                <mxCell id="19" value="Component" style="text;html=1;strokeColor=none;fillColor=none;align=center;verticalAlign=middle;whiteSpace=wrap;rounded=0;labelBackgroundColor=none;fontSize=12;fontColor=#FFFFFF;" parent="1" vertex="1">
                    <mxGeometry x="525" y="186.36" width="60" height="30" as="geometry"/>
                </mxCell>
                <mxCell id="20" value="visible text" style="text;html=1;strokeColor=none;fillColor=none;align=center;verticalAlign=middle;whiteSpace=wrap;rounded=0;labelBackgroundColor=none;fontSize=12;fontColor=#CC6600;" parent="1" vertex="1">
                    <mxGeometry x="525" y="206.36" width="60" height="30" as="geometry"/>
                </mxCell>
                <mxCell id="30" value="" style="ellipse;whiteSpace=wrap;html=1;aspect=fixed;labelBackgroundColor=none;fontSize=12;fontColor=#ffffff;fillColor=none;strokeColor=#6F0000;" parent="1" vertex="1">
                    <mxGeometry x="525" y="236.36" width="13.64" height="13.64" as="geometry"/>
                </mxCell>
                <mxCell id="31" value="&lt;font color=&quot;#ffffff&quot;&gt;delete button&lt;/font&gt;" style="text;html=1;strokeColor=none;fillColor=none;align=center;verticalAlign=middle;whiteSpace=wrap;rounded=0;labelBackgroundColor=none;fontSize=12;fontColor=#CC6600;" parent="1" vertex="1">
                    <mxGeometry x="525" y="228.18" width="110" height="30" as="geometry"/>
                </mxCell>
                <mxCell id="32" value="&lt;font color=&quot;#3399ff&quot;&gt;button&lt;/font&gt;" style="text;html=1;align=center;verticalAlign=middle;resizable=0;points=[];autosize=1;strokeColor=none;fillColor=none;fontSize=12;fontColor=#FFFFFF;" parent="1" vertex="1">
                    <mxGeometry x="510" y="250" width="60" height="30" as="geometry"/>
                </mxCell>
            </root>
        </mxGraphModel>
    </diagram>
</mxfile>